<?xml version="1.0" encoding="UTF-8" standalone="no"?>
<!-- Created with Inkscape (http://www.inkscape.org/) -->

<svg
   xmlns:dc="http://purl.org/dc/elements/1.1/"
   xmlns:cc="http://creativecommons.org/ns#"
   xmlns:rdf="http://www.w3.org/1999/02/22-rdf-syntax-ns#"
   xmlns:svg="http://www.w3.org/2000/svg"
   xmlns="http://www.w3.org/2000/svg"
   xmlns:sodipodi="http://sodipodi.sourceforge.net/DTD/sodipodi-0.dtd"
   xmlns:inkscape="http://www.inkscape.org/namespaces/inkscape"
   width="128"
   height="128"
   viewBox="0 0 128 128"
   id="svg2"
   version="1.1"
   inkscape:version="0.91 r13725"
   inkscape:export-filename="/Users/younjin/Github/MuZilla/assets/icon-final.png"
   inkscape:export-xdpi="90"
   inkscape:export-ydpi="90"
   sodipodi:docname="icon-final.svg">
  <defs
     id="defs4" />
  <sodipodi:namedview
     id="base"
     pagecolor="#ffffff"
     bordercolor="#666666"
     borderopacity="1.0"
     inkscape:pageopacity="0.0"
     inkscape:pageshadow="2"
     inkscape:zoom="5.3515625"
     inkscape:cx="64"
     inkscape:cy="64"
     inkscape:document-units="px"
     inkscape:current-layer="layer1"
     showgrid="false"
     units="px"
     inkscape:window-width="1440"
     inkscape:window-height="851"
     inkscape:window-x="0"
     inkscape:window-y="0"
     inkscape:window-maximized="1" />
  <metadata
     id="metadata7">
    <rdf:RDF>
      <cc:Work
         rdf:about="">
        <dc:format>image/svg+xml</dc:format>
        <dc:type
           rdf:resource="http://purl.org/dc/dcmitype/StillImage" />
        <dc:title></dc:title>
      </cc:Work>
    </rdf:RDF>
  </metadata>
  <g
     inkscape:label="Layer 1"
     inkscape:groupmode="layer"
     id="layer1"
     transform="translate(0,-924.3622)">
    <path
       style="opacity:1;fill:#000000;fill-opacity:0.39215686;fill-rule:evenodd;stroke:none;stroke-width:8;stroke-linecap:round;stroke-linejoin:round;stroke-miterlimit:4;stroke-dasharray:none;stroke-opacity:1"
       d="m 77.409363,924.38516 -1.61e-4,0.002 c -3.13622,-0.21104 -5.732962,0.93781 -5.946896,2.63102 -0.0037,0.0391 -0.0063,0.0783 -0.0076,0.11759 l -0.0021,-1.4e-4 -11.501082,80.55167 c -8.485643,-5.5172 -16.695026,-7.2725 -29.149222,-4.6558 -20.14704,4.2361 -33.700224,18.4443 -30.27202908,31.7352 3.42773598,13.2908 27.00289508,20.6317 47.15007308,16.3963 16.08791,-3.3865 28.478974,-13.3254 30.499195,-24.4637 0.0376,-0.1519 0.07259,-0.3038 0.104949,-0.4555 l 0.04336,0 8.186297,-62.54765 c 7.559807,3.02076 34.250173,14.421 39.449843,9.6847 10.30934,-9.39063 -21.07295,-37.33321 -37.231223,-47.46482 -1.042577,-0.77783 -4.809043,-1.32049 -6.466752,-1.49762 -0.140508,-0.0148 -4.715926,-0.0268 -4.856742,-0.0361 z"
       id="path3336"
       inkscape:connector-curvature="0"
       sodipodi:nodetypes="cccccccccccccscccc" />
  </g>
</svg>
