<?xml version="1.0" encoding="UTF-8" standalone="no"?>
<!-- Created with Inkscape (http://www.inkscape.org/) -->

<svg
   xmlns:dc="http://purl.org/dc/elements/1.1/"
   xmlns:cc="http://creativecommons.org/ns#"
   xmlns:rdf="http://www.w3.org/1999/02/22-rdf-syntax-ns#"
   xmlns:svg="http://www.w3.org/2000/svg"
   xmlns="http://www.w3.org/2000/svg"
   xmlns:sodipodi="http://sodipodi.sourceforge.net/DTD/sodipodi-0.dtd"
   xmlns:inkscape="http://www.inkscape.org/namespaces/inkscape"
   width="128"
   height="128"
   viewBox="0 0 128 128"
   id="svg2"
   version="1.1"
   inkscape:version="0.91 r13725"
   inkscape:export-filename="/Users/younjin/Github/MuZilla/assets/icon-final.png"
   inkscape:export-xdpi="90"
   inkscape:export-ydpi="90"
   sodipodi:docname="icon-final.svg">
  <defs
     id="defs4" />
  <sodipodi:namedview
     id="base"
     pagecolor="#ffffff"
     bordercolor="#666666"
     borderopacity="1.0"
     inkscape:pageopacity="0.0"
     inkscape:pageshadow="2"
     inkscape:zoom="0.5"
     inkscape:cx="64"
     inkscape:cy="64"
     inkscape:document-units="px"
     inkscape:current-layer="layer1"
     showgrid="false"
     units="px"
     inkscape:window-width="1440"
     inkscape:window-height="851"
     inkscape:window-x="0"
     inkscape:window-y="0"
     inkscape:window-maximized="1" />
  <metadata
     id="metadata7">
    <rdf:RDF>
      <cc:Work
         rdf:about="">
        <dc:format>image/svg+xml</dc:format>
        <dc:type
           rdf:resource="http://purl.org/dc/dcmitype/StillImage" />
        <dc:title></dc:title>
      </cc:Work>
    </rdf:RDF>
  </metadata>
  <g
     inkscape:label="Layer 1"
     inkscape:groupmode="layer"
     id="layer1"
     transform="translate(0,-924.3622)">
    <path
       style="opacity:1;fill:#000000;fill-opacity:0.39215686;fill-rule:evenodd;stroke:none;stroke-width:8;stroke-linecap:round;stroke-linejoin:round;stroke-miterlimit:4;stroke-dasharray:none;stroke-opacity:1"
       d="m 77.29014,924.38516 -1.45e-4,0.002 c -2.847792,-0.21104 -5.205719,0.93781 -5.399978,2.63102 -0.0034,0.0391 -0.0057,0.0783 -0.0068,0.11759 l -0.0019,-1.4e-4 -10.443361,80.55167 c -7.705243,-5.5172 -15.159633,-7.2725 -26.468453,-4.6558 -18.294175,4.2361 -30.6009114,18.4443 -27.4879977,31.7352 3.1124967,13.2908 24.5195167,20.6317 42.8138177,16.3963 14.60835,-3.3865 25.859845,-13.3254 27.694272,-24.4637 0.03414,-0.1519 0.06591,-0.3038 0.0953,-0.4555 l 0.03938,0 8.058426,-67.67265 c 6.864551,3.02076 18.316569,11.90819 18.811979,18.57747 0.49521,6.66666 -1.92553,14.30049 -12.988223,13.93016 13.186033,7.99317 30.199923,-3.53137 28.926023,-22.64079 -1.2485,-18.72824 -33.114468,-40.97562 -35.360198,-42.52196 -0.946694,-0.77783 -4.36677,-1.32049 -5.872024,-1.49762 -0.127586,-0.0148 -2.282216,-0.0268 -2.410082,-0.0361 z"
       id="path3336"
       inkscape:connector-curvature="0"
       sodipodi:nodetypes="cccccccccccccscscccc" />
  </g>
</svg>
